<?xml version="1.0" standalone="no"?>
<!DOCTYPE svg PUBLIC "-//W3C//DTD SVG 20010904//EN"
 "http://www.w3.org/TR/2001/REC-SVG-20010904/DTD/svg10.dtd">
<svg version="1.0" xmlns="http://www.w3.org/2000/svg"
 width="500.000000pt" height="500.000000pt" viewBox="0 0 500.000000 500.000000"
 preserveAspectRatio="xMidYMid meet">

<g transform="translate(0.000000,500.000000) scale(0.100000,-0.100000)"
fill="#000000" stroke="none">
<path d="M2645 4366 c-5 -16 -36 -359 -33 -361 2 -1 19 -5 39 -8 l36 -5 12
141 c6 78 14 163 17 188 l4 47 -36 4 c-20 2 -37 0 -39 -6z"/>
<path d="M2801 4278 c-7 -40 -21 -122 -32 -182 -11 -59 -19 -110 -17 -111 2
-2 19 -6 39 -10 l36 -7 8 59 c3 32 18 113 31 181 14 67 22 127 19 132 -3 6
-21 10 -39 10 l-33 0 -12 -72z"/>
<path d="M2030 4295 c-63 -18 -114 -37 -114 -42 2 -9 49 -181 73 -268 17 -57
19 -60 47 -57 45 5 50 16 30 78 -10 31 -16 58 -13 60 2 2 37 13 78 23 72 19
74 20 71 47 -2 16 -4 30 -6 31 -1 1 -37 -7 -80 -17 -43 -11 -80 -20 -81 -20
-2 0 -6 12 -9 28 -4 15 -9 35 -12 44 -4 14 11 22 83 44 48 14 89 27 91 29 8 7
-19 55 -30 54 -7 -1 -65 -16 -128 -34z"/>
<path d="M2470 4186 c0 -87 -2 -96 -22 -110 -52 -37 -98 -3 -98 72 0 26 -3 64
-6 85 -6 34 -9 37 -40 37 -33 0 -34 -1 -34 -42 1 -83 18 -179 36 -199 9 -10
34 -24 55 -30 32 -10 44 -9 78 8 23 12 44 17 47 12 3 -5 21 -9 40 -9 l35 0 -6
73 c-3 39 -8 100 -11 135 l-6 62 -34 0 -34 0 0 -94z"/>
<path d="M3174 4185 c-28 -19 -48 -69 -40 -99 3 -13 36 -54 72 -90 57 -55 65
-68 54 -81 -26 -32 -80 -16 -140 41 l-35 33 -24 -20 -24 -20 34 -35 c71 -75
178 -101 236 -58 22 17 29 30 31 66 3 43 1 46 -63 106 -67 62 -76 85 -44 105
22 14 69 -6 111 -45 l31 -29 21 21 c27 27 16 45 -54 88 -60 36 -130 43 -166
17z"/>
<path d="M2916 4113 c-16 -40 -1 -53 85 -72 36 -8 40 -7 45 16 4 13 5 26 2 28
-2 2 -32 13 -65 23 -53 17 -63 17 -67 5z"/>
<path d="M3486 4014 c-13 -19 -21 -23 -29 -15 -16 16 -25 14 -37 -9 -7 -14 -7
-25 1 -38 10 -16 6 -28 -29 -79 -53 -75 -54 -104 -6 -149 40 -39 70 -43 79
-13 5 15 1 25 -14 35 -29 21 -26 41 15 103 l36 53 25 -24 25 -23 19 24 20 24
-27 22 c-26 21 -27 22 -9 49 10 14 16 28 14 30 -18 13 -54 36 -59 36 -3 0 -13
-12 -24 -26z"/>
<path d="M1449 3917 c-9 -12 -19 -33 -24 -46 -5 -17 -9 -20 -15 -11 -7 11 -13
10 -34 -4 -14 -9 -26 -21 -26 -26 0 -5 37 -54 82 -108 l83 -99 27 20 c16 12
28 23 28 27 0 3 -22 33 -50 67 -55 68 -61 95 -28 130 l22 24 -25 24 -24 24
-16 -22z"/>
<path d="M1756 3894 c-21 -20 -20 -37 2 -57 35 -32 82 -15 82 28 0 43 -53 61
-84 29z"/>
<path d="M3630 3831 c0 -5 -2 -15 -5 -23 -3 -8 9 -21 31 -33 45 -24 68 -57 59
-85 -8 -27 -14 -26 -55 11 -40 37 -96 63 -113 53 -32 -18 -57 -50 -57 -72 0
-49 59 -112 105 -112 13 0 15 -3 6 -13 -8 -11 -5 -19 14 -37 l26 -24 72 72
c70 70 72 74 72 122 0 42 -5 54 -35 85 -50 52 -120 85 -120 56z m4 -165 c47
-39 12 -85 -40 -52 -29 20 -39 39 -30 61 8 22 37 18 70 -9z"/>
<path d="M1235 3711 c-60 -37 -79 -67 -79 -125 -1 -68 23 -103 88 -130 46 -20
46 -20 93 0 53 22 113 91 113 130 0 20 -5 24 -27 24 -21 0 -32 -8 -43 -32 -21
-45 -63 -74 -90 -62 -20 9 -17 14 44 84 36 41 64 80 63 85 -5 16 -70 45 -102
45 -16 0 -43 -8 -60 -19z m85 -60 c-1 -3 -21 -28 -45 -54 -42 -46 -44 -47 -55
-26 -24 45 30 105 83 91 9 -2 17 -7 17 -11z"/>
<path d="M3767 3553 c-44 -31 -63 -82 -52 -139 9 -52 80 -124 122 -124 27 0
29 2 25 33 -3 27 -9 35 -35 43 -81 24 -47 144 41 144 28 0 62 -42 62 -77 0
-23 6 -33 27 -42 76 -35 48 114 -32 167 -49 31 -109 30 -158 -5z"/>
<path d="M1037 3453 c-34 -22 -70 -93 -60 -118 5 -14 3 -17 -9 -13 -17 7 -55
-49 -42 -62 5 -4 78 -47 162 -94 l153 -85 19 31 19 31 -56 35 c-49 31 -53 36
-36 43 26 10 59 55 67 95 9 39 -11 90 -48 123 -35 33 -127 40 -169 14z m116
-73 c36 -28 42 -54 20 -90 -28 -48 -76 -52 -121 -9 -28 25 -28 59 -1 93 25 32
66 34 102 6z"/>
<path d="M4115 3370 c-22 -10 -92 -41 -155 -70 -63 -28 -118 -55 -123 -59 -7
-7 10 -71 19 -71 3 0 18 7 34 15 23 12 34 13 55 3 14 -6 24 -14 23 -17 -2 -3
-17 -32 -33 -63 l-29 -58 20 -41 20 -40 44 85 c24 47 49 86 55 86 6 0 39 -11
73 -25 34 -14 64 -25 67 -25 3 0 -4 18 -15 40 -20 40 -38 51 -134 89 -27 11
-28 13 -10 25 10 7 54 27 97 45 42 19 77 35 77 36 0 9 -33 65 -38 65 -4 -1
-25 -9 -47 -20z"/>
<path d="M911 3143 c-50 -26 -74 -64 -79 -126 -7 -92 49 -157 135 -157 88 0
155 90 138 188 -14 85 -117 136 -194 95z m110 -81 c29 -24 30 -75 1 -104 -49
-49 -141 -2 -128 66 4 17 14 37 23 44 25 18 77 15 104 -6z"/>
<path d="M4135 2852 c-82 -8 -151 -16 -153 -18 -2 -1 2 -46 8 -100 18 -166 70
-234 178 -234 68 0 113 19 144 61 36 48 40 78 32 201 l-7 108 -26 -2 c-14 0
-93 -8 -176 -16z m150 -189 c-11 -63 -84 -98 -163 -77 -28 8 -57 63 -65 126
-8 56 -12 54 128 65 l90 8 8 -45 c4 -25 5 -59 2 -77z"/>
<path d="M675 2819 c-4 -17 -4 -33 -1 -36 6 -7 312 -63 342 -63 17 0 24 8 29
31 4 17 5 33 2 35 -5 5 -329 63 -354 64 -6 0 -14 -14 -18 -31z"/>
<path d="M831 2672 c-54 -27 -76 -65 -75 -127 1 -135 149 -194 238 -95 33 37
36 45 36 104 0 48 -5 70 -19 87 -19 23 -19 23 -40 5 -15 -14 -18 -23 -11 -37
24 -44 0 -129 -36 -129 -11 0 -14 20 -14 105 0 102 -1 105 -22 105 -13 0 -38
-8 -57 -18z m39 -127 c0 -71 -15 -85 -44 -43 -21 29 -20 67 1 90 32 35 43 23
43 -47z"/>
<path d="M4050 2434 c-43 -37 -60 -75 -60 -137 0 -67 17 -95 47 -76 18 11 20
19 16 65 -5 48 -3 55 23 81 l29 28 3 -25 c1 -14 -1 -61 -6 -105 -5 -44 -7 -84
-4 -89 8 -13 83 1 111 21 42 31 63 81 58 137 -4 43 -10 55 -45 88 -36 33 -47
38 -91 38 -39 0 -56 -6 -81 -26z m142 -71 c28 -25 24 -77 -9 -103 l-28 -22 -3
38 c-4 42 5 104 15 104 4 0 15 -7 25 -17z"/>
<path d="M760 2338 c0 -36 10 -43 95 -62 44 -10 86 -22 93 -25 9 -5 -17 -26
-73 -61 -58 -36 -84 -58 -80 -68 3 -7 5 -22 5 -33 0 -10 5 -19 10 -19 6 0 62
33 125 73 105 66 115 75 115 102 0 17 -4 36 -9 44 -8 12 -142 49 -238 66 -40
6 -43 5 -43 -17z"/>
<path d="M4057 2106 l-109 -11 -14 -34 c-8 -18 -14 -35 -14 -36 0 -3 179 -158
211 -182 13 -11 17 -8 26 22 l11 35 -74 61 c-40 34 -71 65 -68 70 3 5 38 9 77
9 98 0 112 5 125 46 l10 34 -36 -1 c-21 -1 -86 -7 -145 -13z"/>
<path d="M1033 2068 c-8 -17 -5 -29 14 -56 26 -39 30 -94 8 -112 -15 -13 -16
-11 -66 118 -13 34 -30 62 -36 62 -7 0 -31 -16 -52 -35 -51 -47 -61 -95 -32
-159 27 -63 70 -88 139 -83 110 8 160 112 106 219 -14 28 -52 68 -64 68 -4 0
-11 -10 -17 -22z m-57 -139 l21 -59 -20 0 c-27 0 -67 38 -67 65 0 24 29 69 38
60 4 -3 16 -33 28 -66z"/>
<path d="M3882 1862 c-46 -25 -84 -86 -90 -146 -4 -44 -3 -48 12 -43 10 4 24
7 32 7 8 0 14 10 14 25 0 51 46 105 90 105 17 0 12 -14 -35 -99 -25 -45 -45
-86 -45 -91 0 -15 76 -33 113 -26 42 8 92 60 106 111 18 66 -17 133 -85 161
-43 18 -72 17 -112 -4z m136 -111 c13 -36 -3 -71 -42 -90 -45 -21 -50 -1 -15
62 17 31 34 57 39 57 4 0 13 -13 18 -29z"/>
<path d="M1022 1750 c-68 -49 -91 -115 -68 -193 12 -41 97 -180 118 -193 6 -4
75 39 229 143 l67 45 -52 80 c-28 44 -71 96 -95 114 -38 30 -51 34 -101 34
-47 0 -64 -5 -98 -30z m183 -80 c17 -16 38 -42 47 -58 l18 -30 -43 -27 c-23
-16 -60 -40 -82 -55 -22 -15 -46 -30 -52 -34 -20 -11 -73 80 -73 127 0 51 13
73 58 97 47 25 87 19 127 -20z"/>
<path d="M3706 1619 c-11 -18 -15 -34 -9 -38 5 -3 53 -40 107 -81 54 -41 116
-88 138 -103 l41 -29 26 27 26 27 -29 21 c-16 12 -64 49 -107 82 -115 88 -165
125 -170 125 -3 0 -13 -14 -23 -31z"/>
<path d="M3636 1503 c-46 -12 -95 -56 -112 -99 -20 -53 -14 -94 21 -140 52
-68 148 -68 214 0 38 39 51 101 32 157 -18 55 -99 97 -155 82z m72 -96 c44
-40 17 -127 -41 -127 -80 0 -115 115 -44 145 35 15 52 11 85 -18z"/>
<path d="M3348 1399 l-27 -20 29 -47 29 -47 -39 -13 c-114 -39 -134 -166 -38
-247 28 -24 38 -27 85 -23 42 4 60 11 83 33 17 16 30 35 30 42 0 7 5 13 10 13
6 0 10 -4 10 -10 0 -5 13 -1 30 8 16 9 30 20 30 25 0 4 -26 47 -57 95 -32 48
-62 94 -68 103 -5 9 -23 37 -38 63 -16 25 -32 46 -35 46 -4 0 -19 -10 -34 -21z
m87 -204 c33 -32 34 -87 3 -109 -36 -25 -73 -20 -102 15 -31 37 -33 58 -5 93
27 34 71 35 104 1z"/>
<path d="M1432 1370 c-62 -38 -91 -125 -61 -183 17 -33 57 -65 90 -72 l30 -7
-37 -51 -37 -51 29 -24 c28 -24 28 -24 43 -4 9 10 50 63 91 117 41 53 87 112
103 130 l28 33 -30 21 c-21 15 -32 18 -37 10 -4 -8 -13 0 -23 22 -34 71 -123
99 -189 59z m129 -80 c36 -35 33 -61 -12 -102 -37 -35 -63 -35 -94 -2 -33 36
-31 69 4 105 37 37 65 37 102 -1z"/>
<path d="M1730 1197 c0 -31 13 -47 37 -47 52 0 93 -35 93 -81 0 -17 -10 -14
-91 27 -107 53 -114 51 -114 -36 0 -49 4 -63 25 -85 36 -39 73 -55 126 -55 40
0 51 5 84 38 71 70 61 162 -24 218 -49 33 -136 46 -136 21z m109 -183 c2 -2
-2 -11 -9 -19 -21 -25 -79 -15 -103 17 -11 14 -17 33 -14 42 5 13 14 12 64
-11 32 -14 60 -27 62 -29z"/>
<path d="M3024 1115 c-28 -14 -56 -36 -62 -49 -10 -22 -8 -25 17 -34 23 -8 30
-7 42 9 20 29 71 42 103 28 30 -14 33 -27 9 -35 -10 -4 -52 -20 -94 -37 -77
-30 -77 -30 -67 -59 26 -73 130 -103 203 -58 117 72 68 260 -68 260 -18 0 -56
-11 -83 -25z m144 -142 c-2 -14 -15 -35 -30 -46 -24 -18 -30 -18 -57 -7 -45
18 -38 35 22 58 69 26 69 26 65 -5z"/>
<path d="M2055 1043 c-11 -21 -50 -93 -88 -161 -38 -68 -67 -125 -65 -127 2
-3 19 -6 37 -7 33 -3 35 -1 95 104 33 59 63 108 66 108 3 0 13 -54 21 -120 9
-67 19 -123 22 -126 3 -3 20 -7 38 -7 31 -2 35 2 89 96 31 53 61 102 66 107 7
7 14 -29 23 -108 7 -65 16 -123 19 -129 4 -5 24 -13 45 -17 l37 -7 -5 38 c-4
21 -16 106 -28 188 l-22 150 -42 6 -42 5 -58 -108 c-32 -59 -60 -108 -63 -108
-3 0 -13 54 -22 121 -9 66 -18 122 -20 124 -2 2 -22 7 -43 10 -38 6 -41 5 -60
-32z"/>
<path d="M2836 1063 c-16 -4 -17 -10 -10 -46 4 -23 8 -67 8 -97 1 -50 -1 -55
-29 -70 -16 -8 -31 -15 -33 -16 -1 0 1 -15 4 -33 6 -26 10 -30 28 -25 11 3 31
16 44 27 20 18 22 19 22 3 0 -15 6 -16 33 -11 17 4 34 9 36 11 4 3 -13 92 -45
242 -4 22 -18 25 -58 15z"/>
<path d="M2495 1006 c-30 -45 20 -91 64 -59 23 16 28 52 9 71 -20 20 -56 14
-73 -12z"/>
</g>
</svg>
